<svg fill="none" height="210" viewBox="0 0 490 210" width="490" xmlns="http://www.w3.org/2000/svg"><path d="m39.2727 16.35 30.8 15.05v7l-30.8 15.05-30.80007-15.05v-7zm-26.25 18.83c.3266.0467.7.1167 1.12.21.3733.0933.8166.21 1.33.35.4666.14.98.35 1.54.63l22.12 10.57 22.4-10.71c.56-.28 1.0733-.49 1.54-.63.5133-.14.9566-.2567 1.33-.35.42-.0467.7933-.0933 1.12-.14v-.49c-.3267-.0467-.6767-.14-1.05-.28-.3734-.0933-.7934-.2333-1.26-.42-.4667-.1867-.98-.42-1.54-.7l-21.91-10.5-22.75 10.92c-1.0267.42-1.9834.7233-2.87.91-.42.0933-.7934.14-1.12.14zm113.6403 20.37v-41.3h6.3v9.45h93.1l-7.49-9.45h7.42l16.17 20.65-16.24 20.65h-7.35l7.49-9.45h-93.1v9.45zm6.3-26.25v11.2h97.58l1.33-1.68c.094-.0933.164-.1867.21-.28.094-.0933.187-.1867.28-.28.514-.6533.98-1.19 1.4-1.61s.747-.7467.98-.98c.327-.28.607-.49.84-.63v-.21c-.233-.14-.49-.3733-.77-.7-.28-.2333-.63-.5367-1.05-.91-.373-.42-.84-.9567-1.4-1.61-.093-.14-.21-.28-.35-.42s-.28-.3033-.42-.49l-1.12-1.4zm161.618 8.4v-5.6h13.37v-13.65h6.16v13.65h28.14v-13.65h6.16v13.65h13.37v5.6h-13.37v13.65h-6.16v-13.65h-28.14v13.65h-6.16v-13.65zm122.418-5.6h63.42c-.186-.2333-.373-.4433-.56-.63-.186-.2333-.396-.49-.63-.77l-13.02-16.45h7.42l16.17 20.65-16.24 20.65h-7.35l13.3-16.73c.187-.2333.35-.42.49-.56.14-.1867.28-.3733.42-.56h-63.42zm-358.181 75.6v-5.6h98v5.6zm-58.8000557-2.8 16.1700557-20.65h7.42l-13.02 16.52c-.2334.233-.42.467-.56.7-.18672.187-.37339.397-.56005.63h25.55005v5.6h-25.62005c.14.187.30333.373.48999.56.14006.187.30336.397.49006.63l13.23 16.66h-7.35zm43.1900557-27.3h7.42v8.4l-1.47 26.95h-4.48l-1.47-26.95zm-1.54 46.62c0-1.26.42-2.287 1.26-3.08s1.9366-1.19 3.29-1.19h1.4c1.3533 0 2.45.397 3.29 1.19s1.26 1.82 1.26 3.08-.42 2.263-1.26 3.01-1.9367 1.12-3.29 1.12h-1.4c-1.3534 0-2.45-.35-3.29-1.05-.84-.747-1.26-1.773-1.26-3.08zm166.141-24.15h5.95v2.8c0 2.567 1.096 3.85 3.29 3.85.793 0 1.493-.21 2.1-.63.56-.467 1.12-1.027 1.68-1.68.513-.7 1.073-1.447 1.68-2.24.56-.793 1.236-1.517 2.03-2.17.746-.7 1.633-1.26 2.66-1.68 1.026-.4667 2.263-.7 3.71-.7 1.446 0 2.706.2333 3.78.7 1.026.42 1.936.98 2.73 1.68.793.653 1.493 1.377 2.1 2.17.606.793 1.213 1.54 1.82 2.24.56.653 1.166 1.213 1.82 1.68.606.42 1.306.63 2.1.63.793 0 1.493-.21 2.1-.63.606-.467 1.213-1.027 1.82-1.68.56-.7 1.143-1.447 1.75-2.24.606-.793 1.33-1.517 2.17-2.17.793-.7 1.726-1.26 2.8-1.68 1.026-.4667 2.263-.7 3.71-.7 1.446 0 2.683.2333 3.71.7 1.026.42 1.936.98 2.73 1.68.746.653 1.423 1.377 2.03 2.17.56.793 1.12 1.54 1.68 2.24.56.653 1.143 1.213 1.75 1.68.606.42 1.306.63 2.1.63.793 0 1.493-.21 2.1-.63.606-.467 1.19-1.027 1.75-1.68.56-.7 1.143-1.447 1.75-2.24.56-.793 1.236-1.517 2.03-2.17.746-.7 1.633-1.26 2.66-1.68 1.026-.4667 2.263-.7 3.71-.7 1.446 0 2.683.2333 3.71.7 1.026.42 1.913.98 2.66 1.68.793.653 1.47 1.377 2.03 2.17.606.793 1.19 1.54 1.75 2.24.56.653 1.12 1.213 1.68 1.68.606.42 1.33.63 2.17.63 1.073 0 1.96-.327 2.66-.98.746-.7 1.493-1.493 2.24-2.38.746-.933 1.586-1.82 2.52-2.66.933-.8867 2.123-1.54 3.57-1.96l-11.48-14.49h7.42l16.17 20.65-16.24 20.65h-7.35l13.3-16.73c1.12-1.4 2.03-2.403 2.73-3.01.373-.327.7-.583.98-.77v-.21c-.094-.047-.21-.14-.35-.28-.14-.093-.304-.21-.49-.35-.187-.187-.397-.397-.63-.63h-1.05c-.794 0-1.494.21-2.1.63-.607.42-1.19.933-1.75 1.54s-1.144 1.283-1.75 2.03c-.56.747-1.237 1.423-2.03 2.03-.747.607-1.634 1.12-2.66 1.54-1.027.42-2.264.63-3.71.63-1.447 0-2.684-.21-3.71-.63-1.027-.467-1.937-1.027-2.73-1.68-.747-.7-1.424-1.447-2.03-2.24-.56-.793-1.12-1.517-1.68-2.17-.56-.7-1.144-1.26-1.75-1.68-.607-.467-1.307-.7-2.1-.7-.84 0-1.54.233-2.1.7-.607.42-1.19.98-1.75 1.68-.56.653-1.12 1.377-1.68 2.17-.607.793-1.284 1.54-2.03 2.24-.794.653-1.704 1.213-2.73 1.68-1.027.42-2.264.63-3.71.63-1.447 0-2.684-.21-3.71-.63-1.027-.467-1.914-1.027-2.66-1.68-.794-.7-1.47-1.447-2.03-2.24-.607-.793-1.19-1.517-1.75-2.17-.56-.7-1.144-1.26-1.75-1.68-.607-.467-1.307-.7-2.1-.7-.84 0-1.564.233-2.17.7-.607.42-1.19.98-1.75 1.68-.607.653-1.214 1.377-1.82 2.17-.607.793-1.307 1.54-2.1 2.24-.794.653-1.704 1.213-2.73 1.68-1.074.42-2.334.63-3.78.63-1.447 0-2.707-.21-3.78-.63-1.074-.467-2.007-1.027-2.8-1.68-.794-.7-1.494-1.447-2.1-2.24-.607-.793-1.214-1.517-1.82-2.17-.607-.7-1.214-1.26-1.82-1.68-.654-.467-1.377-.7-2.17-.7-1.214 0-2.217.49-3.01 1.47-.794.933-1.61 1.96-2.45 3.08-.887 1.12-1.96 2.17-3.22 3.15-1.26.933-2.987 1.4-5.18 1.4-2.754 0-4.947-.84-6.58-2.52-1.68-1.68-2.52-3.873-2.52-6.58zm167.19 7.63v-5.6h85.12c-.186-.233-.373-.443-.56-.63-.186-.233-.396-.49-.63-.77l-13.02-16.45h7.42l16.17 20.65-16.24 20.65h-7.35l13.3-16.73c.187-.233.35-.42.49-.56.14-.187.28-.373.42-.56zm91.21-23.45h7.42l16.17 20.65-16.24 20.65h-7.35l13.3-16.73c1.12-1.4 2.03-2.403 2.73-3.01.374-.327.7-.583.98-.77v-.21c-.28-.187-.606-.467-.98-.84-.373-.327-.816-.747-1.33-1.26-.466-.56-1.026-1.237-1.68-2.03zm-461.58637 121.45 24.85007-65.8h6.65l-8.96 23.8h46.41v5.6h-48.58l-4.2 11.2h52.78v5.6h-54.88l-7.42 19.6zm137.11837-33.95v-7l42.7-15.75v6.3l-34.3 11.76c-.56.187-1.074.35-1.54.49-.467.093-.887.187-1.26.28-.374.047-.724.093-1.05.14v.49c.326 0 .676.047 1.05.14.373.047.793.117 1.26.21.466.093.98.257 1.54.49l34.3 11.97v6.23zm0 15.61v-6.16l42.7 15.82v6.16zm114.2-7.42 3.71-13.93h-8.54v-4.06h9.66l3.85-14.35h4.55l-3.85 14.35h9.8l3.85-14.35h4.55l-3.85 14.35h21l3.85-14.35h4.55l-3.85 14.35h9.8l3.85-14.35h4.55l-3.85 14.35h21l3.85-14.35h4.55l-3.85 14.35h9.8l3.85-14.35h4.55l-3.85 14.35h6.16v4.06h-7.28l-3.71 13.93h8.54v4.06h-9.66l-3.78 14h-4.55l3.78-14h-9.8l-3.78 14h-4.55l3.78-14h-21l-3.78 14h-4.55l3.78-14h-9.8l-3.78 14h-4.55l3.78-14h-21l-3.78 14h-4.55l3.78-14h-9.8l-3.78 14h-4.55l3.78-14h-6.09v-4.06zm79.8 0 3.71-13.93h-21l-3.71 13.93zm-39.9 0 3.71-13.93h-21l-3.71 13.93zm14.35 0 3.71-13.93h-9.8l-3.71 13.93zm39.9 0 3.71-13.93h-9.8l-3.71 13.93zm-79.8 0 3.71-13.93h-9.8l-3.71 13.93zm158.958-34.44h6.3l41.65 25.9v7l-41.65 25.55h-6.3zm6.3 7.49v43.68l31.15-18.9c1.307-.793 2.497-1.423 3.57-1.89.56-.28 1.097-.537 1.61-.77v-.49c-.513-.187-1.05-.397-1.61-.63-.513-.233-1.073-.49-1.68-.77-.606-.327-1.236-.677-1.89-1.05z" fill="#fff"/><path d="m84.9553 46.8004c0-1.82.3033-3.4533.91-4.9.6533-1.4933 1.5633-2.7533 2.73-3.78 1.2133-1.0267 2.66-1.82 4.34-2.38s3.57-.84 5.67-.84h11.4797v-3.15c0-2.38-.793-4.2233-2.38-5.53-1.54-1.3533-3.78-2.03-6.72-2.03-2.1464 0-3.9897.3967-5.5297 1.19-1.4933.7933-2.4967 1.89-3.01 3.29h-6.3c.6533-3.0333 2.31-5.4367 4.97-7.21 2.7067-1.7733 6.0433-2.66 10.0097-2.66 4.76 0 8.494 1.12 11.2 3.36 2.707 2.1933 4.06 5.2733 4.06 9.24v26.6h-5.74v-7.35h-.56c-.606 2.4733-2.03 4.4333-4.27 5.88s-4.97 2.17-8.1897 2.17c-3.8733 0-6.9533-1.0733-9.24-3.22s-3.43-5.04-3.43-8.68zm14.07 6.72c1.5867 0 3.0567-.21 4.4097-.63 1.354-.42 2.52-1.0033 3.5-1.75.98-.7933 1.75-1.7033 2.31-2.73s.84-2.1467.84-3.36v-5.25h-11.3397c-2.3333 0-4.1767.6067-5.53 1.82-1.3067 1.2133-1.96 2.8933-1.96 5.04s.6767 3.8267 2.03 5.04 3.2667 1.82 5.74 1.82zm152.7707-46.62001h6.3v11.90001c0 .6533-.023 1.4233-.07 2.31 0 .84-.023 1.6333-.07 2.38-.093.8867-.163 1.7733-.21 2.66h.56c.607-2.3333 1.843-4.13 3.71-5.39 1.867-1.3067 4.223-1.96 7.07-1.96 1.96 0 3.733.35 5.32 1.05s2.94 1.7033 4.06 3.01c1.12 1.26 1.983 2.8233 2.59 4.69.653 1.8667.98 3.9667.98 6.3v9.8c0 2.3333-.327 4.4333-.98 6.3-.607 1.8667-1.47 3.4533-2.59 4.76-1.12 1.26-2.473 2.24-4.06 2.94s-3.36 1.05-5.32 1.05c-2.847 0-5.203-.63-7.07-1.89-1.867-1.3067-3.103-3.1267-3.71-5.46h-.56v6.65h-5.95zm6.3 36.75001c0 2.94.77 5.2733 2.31 7 1.587 1.7267 3.687 2.59 6.3 2.59 2.8 0 4.993-.8633 6.58-2.59 1.633-1.7267 2.45-4.06 2.45-7v-9.8c0-3.0333-.793-5.39-2.38-7.07s-3.803-2.52-6.65-2.52c-2.613 0-4.713.8633-6.3 2.59-1.54 1.7267-2.31 4.06-2.31 7zm132.918 15.05c-2.38 0-4.527-.35-6.44-1.05-1.867-.7-3.477-1.7033-4.83-3.01-1.307-1.3067-2.333-2.8933-3.08-4.76-.7-1.8667-1.05-3.9433-1.05-6.23v-9.8c0-2.2867.35-4.3633 1.05-6.23.747-1.8667 1.773-3.4533 3.08-4.76 1.353-1.3067 2.963-2.31 4.83-3.01 1.913-.7 4.06-1.05 6.44-1.05 4.247 0 7.723 1.1667 10.43 3.5 2.753 2.2867 4.41 5.4367 4.97 9.45h-6.3c-.327-2.24-1.33-4.0133-3.01-5.32-1.633-1.3533-3.663-2.03-6.09-2.03-2.8 0-5.017.84-6.65 2.52s-2.45 3.99-2.45 6.93v9.8c0 2.94.793 5.25 2.38 6.93 1.633 1.68 3.873 2.52 6.72 2.52 2.427 0 4.457-.6533 6.09-1.96 1.68-1.3533 2.683-3.15 3.01-5.39h6.3c-.607 4.06-2.287 7.2333-5.04 9.52-2.707 2.2867-6.16 3.43-10.36 3.43zm-222.323 45.1496c0-2.333.303-4.4329.91-6.2996.653-1.8667 1.54-3.43 2.66-4.69 1.12-1.3067 2.473-2.31 4.06-3.01 1.586-.7 3.36-1.05 5.32-1.05 2.846 0 5.203.6533 7.07 1.96 1.866 1.26 3.103 3.0567 3.71 5.39h.56c-.047-.7933-.094-1.5867-.14-2.38-.094-.7-.164-1.4233-.21-2.17 0-.7933 0-1.4933 0-2.1v-12.6h6.3v51.0996h-5.95v-6.65h-.56c-.607 2.333-1.844 4.153-3.71 5.46-1.867 1.26-4.224 1.89-7.07 1.89-1.96 0-3.734-.35-5.32-1.05-1.587-.7-2.94-1.68-4.06-2.94-1.12-1.307-2.007-2.893-2.66-4.76-.607-1.867-.91-3.967-.91-6.3zm15.33 19.39c2.613 0 4.69-.863 6.23-2.59 1.586-1.727 2.38-4.06 2.38-7v-9.8c0-2.94-.794-5.2729-2.38-6.9996-1.54-1.7267-3.617-2.59-6.23-2.59-2.847 0-5.064.84-6.65 2.52-1.587 1.68-2.38 4.0366-2.38 7.0696v9.8c0 2.94.793 5.273 2.38 7 1.633 1.727 3.85 2.59 6.65 2.59zm165.16 5.46c-4.806 0-8.586-1.307-11.34-3.92-2.706-2.613-4.06-6.207-4.06-10.78v-10.5c0-4.5729 1.354-8.1663 4.06-10.7796 2.754-2.6133 6.534-3.92 11.34-3.92 4.807 0 8.564 1.3067 11.27 3.92 2.754 2.6133 4.13 6.2067 4.13 10.7796v7.07h-24.5v3.08c0 2.94.794 5.25 2.38 6.93 1.634 1.68 3.874 2.52 6.72 2.52 2.1 0 3.92-.327 5.46-.98s2.684-1.61 3.43-2.87h6.3c-.793 2.94-2.566 5.25-5.32 6.93-2.706 1.68-5.996 2.52-9.87 2.52zm9.1-23.38v-1.82c0-2.893-.793-5.1329-2.38-6.7196-1.586-1.5867-3.826-2.38-6.72-2.38-2.893 0-5.133.7933-6.72 2.38-1.586 1.5867-2.38 3.8266-2.38 6.7196v1.82zm-273.5357 61.67v-5.74h11.2v-4.62c0-3.08.9333-5.46 2.8-7.14 1.9137-1.727 4.5737-2.59 7.9797-2.59h11.27v5.6h-11.27c-2.986 0-4.48 1.4-4.48 4.2v4.55h15.75v5.74h-15.75v31.01h-6.2997v-31.01zm124.7277 6.51c0-4.527 1.19-8.097 3.57-10.71 2.427-2.66 5.694-3.99 9.8-3.99 3.127 0 5.647.747 7.56 2.24 1.914 1.493 3.034 3.547 3.36 6.16h.49v-7.7h5.95v35.7c0 4.527-1.33 8.05-3.99 10.57s-6.37 3.78-11.13 3.78h-10.85v-5.74h10.85c2.8 0 4.97-.747 6.51-2.24s2.31-3.617 2.31-6.37v-1.4l.28-7.7h-.42c-.326 2.613-1.446 4.667-3.36 6.16-1.913 1.493-4.433 2.24-7.56 2.24-4.106 0-7.373-1.307-9.8-3.92-2.38-2.66-3.57-6.253-3.57-10.78zm6.44 6.3c0 2.893.794 5.157 2.38 6.79 1.634 1.633 3.85 2.45 6.65 2.45s4.994-.817 6.58-2.45c1.587-1.633 2.38-3.897 2.38-6.79v-6.3c0-2.893-.793-5.157-2.38-6.79-1.586-1.633-3.78-2.45-6.58-2.45s-5.016.817-6.65 2.45c-1.586 1.633-2.38 3.897-2.38 6.79zm159.701-32.9h6.3v12.6c0 .653-.023 1.377-.07 2.17 0 .747-.023 1.447-.07 2.1-.093.793-.163 1.587-.21 2.38h.56c.607-2.333 1.82-4.13 3.64-5.39 1.867-1.307 4.177-1.96 6.93-1.96 1.913 0 3.64.327 5.18.98 1.587.653 2.917 1.587 3.99 2.8 1.12 1.167 1.983 2.59 2.59 4.27.607 1.633.91 3.477.91 5.53v25.62h-6.3v-24.57c0-2.94-.747-5.227-2.24-6.86s-3.57-2.45-6.23-2.45-4.783.887-6.37 2.66c-1.54 1.727-2.31 4.083-2.31 7.07v24.15h-6.3z" fill="#303030"/></svg>