<?xml version="1.0" encoding="utf-8"?>
<!-- Generator: Adobe Illustrator 21.0.0, SVG Export Plug-In . SVG Version: 6.00 Build 0)  -->
<svg version="1.1" id="Layer_1" xmlns="http://www.w3.org/2000/svg" xmlns:xlink="http://www.w3.org/1999/xlink" x="0px" y="0px"
	 viewBox="0 0 235.8 61.2" style="enable-background:new 0 0 235.8 61.2;" xml:space="preserve">
<style type="text/css">
	.st0{display:none;}
	.st1{display:inline;}
	.st2{fill:#C5C7C7;}
	.st3{fill:#9EA2A2;}
	.st4{fill:#9C3022;}
	.st5{fill:#3E4545;}
	.st6{fill:#CD9790;}
	.st7{fill:#58595B;}
	.st8{fill:#C9001F;}
	.st9{fill:#C7C8CA;}
	.st10{fill:#9D9FA2;}
	.st11{fill:#4D4D4F;}
	.st12{fill:#DBA1AC;}
</style>
<g id="Layer_1_1_" class="st0">
	<g class="st1">
		<g>
			<g>
				<path class="st2" d="M150.5,32.9c0,4.5-3.7,8.2-8.2,8.2s-8.2-3.7-8.2-8.2s3.7-8.2,8.2-8.2C146.8,24.8,150.5,28.4,150.5,32.9"/>
				<g>
					<path class="st2" d="M145.5,39.8l0.5-0.1c0.6-0.3,1.2-0.8,1.7-1.2l0,0l0.3-0.3l3.5,4l-0.3,0.2c-0.6,0.6-1.3,1.1-2,1.6l0,0
						l-0.2,0.2l-3-3.9L145.5,39.8z"/>
				</g>
				<path class="st2" d="M157.2,44.2c-1-1.2-2.5-1.9-3.9-1.9h-0.1l-0.1,0.1c-1.1,1.4-2.6,2.6-4.3,3.3l-0.1,0.1v0.1
					c-0.1,0.3-0.1,0.7-0.1,1c0,1.2,0.4,2.4,1.3,3.4c1.1,1.2,2.5,1.9,4,1.9l0,0c1.1,0,2.1-0.4,3-1.1c1.1-0.9,1.6-2.3,1.6-3.6
					C158.5,46.4,158,45.2,157.2,44.2z"/>
				<path class="st3" d="M148.2,38.6l-5.2-5.9l0,0c-0.3-0.3-0.7-0.4-1-0.4s-0.6,0-0.8,0.3c-0.2,0.2-0.4,0.5-0.4,0.8
					c0,0.2,0.1,0.5,0.3,0.7l4.8,6.2C146.8,39.8,147.6,39.2,148.2,38.6z"/>
				<g>
					<polygon class="st4" points="4.9,18.8 11.6,18.8 19.1,30.8 26.5,18.8 33.2,18.8 33.2,47.2 27.1,47.2 27.1,28.7 19.1,40.8 
						18.9,40.8 11.1,28.8 11.1,47.2 4.9,47.2 					"/>
					<path class="st4" d="M49.1,18.5h5.8L67,47.2h-6.5l-2.6-6.4h-12l-2.6,6.4H37L49.1,18.5z M55.7,35.3l-3.8-9.2l-3.8,9.2H55.7z"/>
					<polygon class="st4" points="79.4,32.8 69.9,18.8 77.2,18.8 83.2,28 89.2,18.8 96.3,18.8 86.8,32.7 96.7,47.2 89.4,47.2 
						83,37.4 76.6,47.2 69.5,47.2 					"/>
					<path class="st5" d="M103.8,18.8h10.3c1.6,0,3,0.2,4.3,0.6c1.3,0.4,2.4,1,3.3,1.7c0.9,0.7,1.6,1.6,2.2,2.7
						c0.5,1.1,0.8,2.3,0.8,3.7v0.1c0,1.5-0.3,2.8-0.9,3.9c-0.6,1.1-1.4,2.1-2.4,2.8c-1,0.8-2.2,1.3-3.5,1.7
						c-1.3,0.4-2.7,0.6-4.2,0.6H106v10.6h-2.1V18.8H103.8z M113.7,34.7c1.3,0,2.5-0.2,3.6-0.5s2-0.8,2.8-1.4s1.4-1.4,1.8-2.2
						c0.4-0.9,0.6-1.8,0.6-2.9v-0.1c0-1.1-0.2-2.1-0.6-3c-0.4-0.9-1-1.6-1.8-2.1c-0.8-0.6-1.7-1-2.7-1.3c-1.1-0.3-2.2-0.5-3.5-0.5
						h-8v14C105.9,34.7,113.7,34.7,113.7,34.7z"/>
					<rect x="162.3" y="18.8" class="st5" width="2.1" height="28.4"/>
					<polygon class="st5" points="170.7,18.8 172.7,18.8 192.3,43.4 192.3,18.8 194.2,18.8 194.2,47.2 192.7,47.2 172.7,22 
						172.7,47.2 170.7,47.2 					"/>
					<polygon class="st5" points="208.9,20.7 199,20.7 199,18.8 220.9,18.8 220.9,20.7 211,20.7 211,47.2 208.9,47.2 					"/>
					<path class="st5" d="M142.3,18c-8.2,0-14.8,6.6-14.8,14.8s6.6,14.8,14.8,14.8s14.8-6.6,14.8-14.8S150.5,18,142.3,18z
						 M142.3,45.8c-7.1,0-12.9-5.8-12.9-12.9s5.8-12.9,12.9-12.9c7.1,0,12.9,5.8,12.9,12.9S149.4,45.8,142.3,45.8z"/>
				</g>
				<g>
					<path class="st5" d="M143.4,33.1c-0.1,0.7-0.7,1.2-1.3,1.2c-0.6-0.1-1.1-0.7-1-1.4l1-19.7c0.1-0.7,1.7-1.1,2.3-1.1
						c0.6,0.1,2.2,0.8,2.1,1.5L143.4,33.1z"/>
					<g>
						<path class="st4" d="M153.4,7.2c-0.5,4.5-4.5,7.8-9.1,7.3c-4.5-0.5-7.8-4.5-7.4-9.1c0.5-4.5,4.5-7.8,9.1-7.3
							S153.9,2.5,153.4,7.2"/>
						<path class="st6" d="M148.3,1.2c0.3,1.5-1.2,3.1-3.5,3.5c-2.2,0.5-4.3-0.3-4.6-1.8s1.2-3.1,3.5-3.5
							C145.9-1.2,148-0.3,148.3,1.2"/>
					</g>
				</g>
			</g>
		</g>
	</g>
	<g class="st1">
		<path class="st7" d="M231.9,17.8c0,1.7-1.3,3-3,3s-3-1.3-3-3s1.3-3,3-3S231.9,16,231.9,17.8z M226.4,17.8c0,1.4,1.1,2.6,2.5,2.6
			c1.5,0,2.5-1.1,2.5-2.6c0-1.4-1.1-2.6-2.5-2.6C227.4,15.2,226.4,16.3,226.4,17.8z M228.2,19.5h-0.4V16h1.3c0.8,0,1.1,0.3,1.1,1
			c0,0.6-0.4,0.9-0.9,1l1,1.5h-0.5l-1-1.5h-0.7v1.5H228.2z M228.8,17.7c0.5,0,1,0,1-0.6c0-0.5-0.4-0.6-0.8-0.6h-0.8v1.2
			C228.2,17.7,228.8,17.7,228.8,17.7z"/>
	</g>
</g>
<g id="Layer_2">
	<g>
		<g>
			<polygon class="st8" points="0,24 6.9,24 14.5,36.3 22.1,24 29,24 29,53.1 22.7,53.1 22.7,34.2 14.5,46.6 14.4,46.6 6.3,34.2 
				6.3,53.1 0,53.1 			"/>
			<path class="st8" d="M51.1,23.8h-5.9L32.8,53.1h6.5l2.7-6.5h12.3l2.6,6.5h6.7L51.1,23.8z M44.2,40.9l3.8-9.4l3.9,9.4H44.2z"/>
			<polygon class="st8" points="76.2,38.3 66.5,24 73.9,24 80,33.4 86.1,24 93.4,24 83.7,38.2 93.8,53.1 86.4,53.1 79.9,43.2 
				73.3,53.1 66.1,53.1 			"/>
		</g>
		<g>
			<path class="st9" d="M148.8,38.6c0,4.6-3.7,8.3-8.3,8.3s-8.3-3.7-8.3-8.3c0-4.6,3.7-8.3,8.3-8.3S148.8,33.9,148.8,38.6"/>
			<g>
				<path class="st9" d="M143.7,45.7l0.5-0.1c0.6-0.3,1.2-0.8,1.7-1.3l0,0l0.3-0.3l3.6,4.1l-0.3,0.2c-0.6,0.6-1.3,1.1-2.1,1.6l0,0
					l-0.3,0.2l-3.1-4L143.7,45.7z"/>
			</g>
			<path class="st9" d="M155.7,50.2c-1-1.2-2.5-1.9-4-1.9h-0.1l-0.1,0.1c-1.2,1.5-2.6,2.6-4.3,3.4l-0.1,0.1v0.1
				c-0.1,0.3-0.1,0.7-0.1,1.1c0,1.2,0.4,2.5,1.3,3.5c1.1,1.3,2.6,1.9,4.1,1.9l0,0c1.1,0,2.2-0.4,3.1-1.1c1.1-0.9,1.7-2.3,1.7-3.7
				C156.9,52.3,156.5,51.2,155.7,50.2z"/>
			<path class="st10" d="M146.5,44.2l-5.3-6l0,0c-0.3-0.3-0.7-0.4-1.1-0.4c-0.3,0-0.6,0-0.9,0.3c-0.2,0.2-0.4,0.5-0.4,0.8
				c0,0.2,0.1,0.5,0.3,0.7L144,46C145,45.6,145.8,44.9,146.5,44.2z"/>
			<path class="st11" d="M121.5,29.2c-0.5-1.1-1.3-2-2.2-2.8c-1-0.8-2.1-1.3-3.4-1.7c-1.3-0.4-2.8-0.6-4.4-0.6H101v29h2.2V42.2h7.8
				c1.1,0.1,2.7-0.1,4.3-0.6c1.4-0.4,2.6-1,3.6-1.7c1-0.8,1.9-1.7,2.5-2.9c0.6-1.2,0.9-2.5,0.9-4V33
				C122.3,31.6,122.1,30.2,121.5,29.2z M120.2,33.2c0,1.1-0.2,2.1-0.7,2.9c-0.4,0.9-1.1,1.6-1.8,2.2c-0.8,0.6-1.7,1.1-2.8,1.5
				c-1.1,0.3-2.3,0.5-3.7,0.5h-8V26h8.2c1.3,0,2.5,0.2,3.6,0.5s2,0.7,2.8,1.3s1.4,1.3,1.8,2.2C120,30.8,120.2,31.9,120.2,33.2
				L120.2,33.2z"/>
			<rect x="160.9" y="24" class="st11" width="2.2" height="29"/>
			<polygon class="st11" points="169.4,24 171.5,24 191.5,49.2 191.5,24 193.5,24 193.5,53.1 191.9,53.1 171.5,27.3 171.5,53.1 
				169.4,53.1 			"/>
			<polygon class="st11" points="208.5,26 198.4,26 198.4,24 220.7,24 220.7,26 210.6,26 210.6,53.1 208.5,53.1 			"/>
			<path class="st11" d="M140.4,23.3c-8.4,0-15.2,6.8-15.2,15.2s6.8,15.2,15.2,15.2s15.2-6.8,15.2-15.2
				C155.6,30.2,148.8,23.3,140.4,23.3z M140.4,51.7c-7.3,0-13.1-5.9-13.1-13.1c0-7.3,5.9-13.1,13.1-13.1c7.3,0,13.1,5.9,13.1,13.1
				C153.6,45.8,147.7,51.7,140.4,51.7z"/>
			<g>
				<path class="st11" d="M141.6,38.7c-0.1,0.7-0.7,1.3-1.3,1.2c-0.7-0.1-1.1-0.7-1.1-1.5l1-20.1c0.1-0.8,1.7-1.2,2.4-1.1
					c0.7,0.1,2.2,0.8,2.1,1.6L141.6,38.7z"/>
				<g>
					<path class="st8" d="M151.8,12.2c-0.5,4.6-4.6,8-9.3,7.5c-4.6-0.5-8-4.6-7.5-9.3c0.5-4.6,4.6-8,9.3-7.5
						C148.9,3.3,152.2,7.5,151.8,12.2"/>
					<path class="st12" d="M146.5,6c0.3,1.5-1.3,3.1-3.6,3.6s-4.4-0.3-4.7-1.8s1.3-3.1,3.6-3.6S146.2,4.5,146.5,6"/>
				</g>
			</g>
			<g>
				<path class="st11" d="M232,25c0,1.7-1.3,3.1-3.1,3.1c-1.7,0-3.1-1.3-3.1-3.1s1.3-3.1,3.1-3.1C230.7,22,232,23.3,232,25z
					 M226.3,25c0,1.5,1.1,2.6,2.6,2.6s2.6-1.2,2.6-2.6c0-1.5-1.1-2.6-2.6-2.6S226.3,23.7,226.3,25z M228.2,26.8h-0.4v-3.5h1.4
					c0.8,0,1.2,0.3,1.2,1c0,0.6-0.4,0.9-0.9,1l1.1,1.6H230l-1-1.6h-0.7L228.2,26.8L228.2,26.8z M228.8,25c0.5,0,1.1,0,1.1-0.6
					c0-0.5-0.4-0.6-0.8-0.6h-0.8V25C228.3,25,228.8,25,228.8,25z"/>
			</g>
		</g>
	</g>
</g>
</svg>
