<?xml version="1.0" encoding="UTF-8" standalone="no"?><!DOCTYPE svg PUBLIC "-//W3C//DTD SVG 1.1//EN" "http://www.w3.org/Graphics/SVG/1.1/DTD/svg11.dtd"><svg width="100%" height="100%" viewBox="0 0 417 334" version="1.1" xmlns="http://www.w3.org/2000/svg" xmlns:xlink="http://www.w3.org/1999/xlink" xml:space="preserve" xmlns:serif="http://www.serif.com/" style="fill-rule:evenodd;clip-rule:evenodd;stroke-linejoin:round;stroke-miterlimit:2;"><g><g><g><path d="M348.359,26.146c-7.083,-7.084 -18.333,-7.084 -25.416,-0c-7.084,7.083 -7.084,18.333 -0,25.416c63.333,63.334 63.333,166.25 -0,229.584c-7.084,7.083 -7.084,18.333 -0,25.416c3.333,3.334 7.916,5.417 12.5,5.417c4.583,0 9.166,-1.667 12.5,-5.417c77.5,-77.5 77.5,-203.333 0.416,-280.416Z" style="fill:#ef1f10;fill-rule:nonzero;"/><path d="M288.776,85.312c-7.083,-7.083 -18.333,-7.083 -25.417,0c-7.083,7.084 -7.083,18.334 0,25.417c30.417,30.417 30.834,80.417 0,110.833c-7.083,7.084 -7.083,18.334 0,25.417c3.334,3.333 7.917,5.417 12.5,5.417c4.584,-0 9.167,-1.667 12.5,-5.417c45.417,-44.583 45,-117.083 0.417,-161.667Z" style="fill:#ef1f10;fill-rule:nonzero;"/><path d="M93.776,51.562c7.083,-7.083 7.083,-18.333 -0,-25.416c-7.083,-7.084 -18.333,-7.084 -25.417,-0c-77.083,77.083 -77.083,202.916 0,280c3.334,3.333 7.917,5.416 12.5,5.416c4.584,0 9.167,-1.666 12.5,-5.416c7.084,-7.084 7.084,-18.334 0,-25.417c-62.916,-62.917 -62.916,-165.833 0.417,-229.167Z" style="fill:#ef1f10;fill-rule:nonzero;"/><path d="M152.943,110.729c7.083,-7.083 7.083,-18.333 -0,-25.417c-7.084,-7.083 -18.334,-7.083 -25.417,0c-44.583,44.584 -44.583,117.084 -0,161.667c3.333,3.333 7.917,5.417 12.5,5.417c4.583,-0 9.167,-1.667 12.5,-5.417c7.083,-7.083 7.083,-18.333 -0,-25.417c-30,-30.416 -30,-80.416 0.417,-110.833Z" style="fill:#ef1f10;fill-rule:nonzero;"/></g><circle cx="208.359" cy="166.146" r="30.417" style="fill:#ef1f10;"/></g></g></svg>